<?xml version="1.0" encoding="iso-8859-1"?>
<!-- Uploaded to: SVG Repo, www.svgrepo.com, Generator: SVG Repo Mixer Tools -->
<svg height="800px" width="800px" version="1.1" id="Layer_1" xmlns="http://www.w3.org/2000/svg"
     viewBox="0 0 448.067 448.067" xml:space="preserve">
<g transform="translate(0 -1020.36)">
	<g shape-rendering="auto" image-rendering="auto" color-rendering="auto" color-interpolation="sRGB">
		<path style="fill:#464C63;" d="M288.232,1020.36c0,0-29.563,2.947-48.75,19.843c-4.422-2.865-9.642-4.594-15.282-4.594
			c-5.726,0-11.088,1.764-15.594,4.688c-19.189-16.882-48.718-19.875-48.718-19.875h-1.6c-3.355,0.24-6.202,2.549-7.125,5.781
			c0,0-1.76,6.033-3.501,13.657c-1.741,7.625-3.562,16.615-3.562,24.188c-0.008,1.504,0.324,3.018,0.464,4.316
			c-77.97,32.26-128.682,108.48-128.376,192.781H8.034c-4.429,0-8.016,3.602-8,8.031c0.384,67.479,31.179,131.205,83.811,173.438
			c1.424,1.137,3.184,1.752,5,1.75h9.438l6.187,18.531c1.056,3.281,4.114,5.51,7.563,5.531h224c3.445,0.002,6.504-2.201,7.594-5.469
			l6.155-18.531h9.376c1.827,0.008,3.603-0.607,5.03-1.75c52.869-42.389,83.683-106.459,83.845-174.219c0-4.418-3.581-8-8-8h-8.062
			c0.011-84.191-50.821-159.943-128.438-192.063c0.16-1.393,0.448-2.893,0.464-4.217v-0.16c0-7.574-1.819-16.566-3.563-24.188
			c-1.738-7.635-3.499-13.687-3.499-13.687c-0.992-3.446-4.163-5.812-7.75-5.782L288.232,1020.36z M164.639,1037.861
			L164.639,1037.861c7.83,1.637,23.154,5.333,33.438,14.404c-1.664,3.596-2.626,7.551-2.626,11.75c0,2.145,0.32,4.217,0.784,6.219
			l-0.192,0.16c-8.238,9.158-19.754,13.129-31.499,17.406c-5.729-16.947-5.511-31.305-1.362-44.536
			c0.688-3.02,0.848-3.285,1.408-5.406L164.639,1037.861z M283.451,1037.861c0.56,2.15,0.72,2.405,1.408,5.437
			c1.629,7.126,3.174,15.894,3.189,20.53c-0.16,4.613-1.811,13.393-3.595,20.531c-0.48,1.914-0.512,1.816-0.96,3.438
			c-11.746-4.279-23.261-8.246-31.499-17.406c0,0,0.003-0.16-0.16-0.16c0.448-1.986,0.752-4.039,0.752-6.156
			c0-4.219-1.024-8.189-2.688-11.813h0.16c10.274-9.061,25.565-12.768,33.406-14.406L283.451,1037.861z M147.325,1084.392
			c0.288,1.248,0.576,2.588,0.88,3.781c1.901,7.623,3.782,13.688,3.782,13.688c1.312,4.27,5.875,6.633,10.125,5.25
			c11.275-3.688,23.195-8.016,33.968-15.594v40.719c-0.01,6.326,6.982,10.16,12.312,6.75l15.251-9.721l16.312,9.813
			c5.304,3.189,12.067-0.592,12.125-6.781v-40.781c10.773,7.578,22.723,11.906,34,15.594c4.25,1.393,8.808-0.977,10.125-5.25
			c0,0,1.883-6.066,3.782-13.688c0.288-1.168,0.528-2.494,0.816-3.719c69.797,30.428,115.222,99.299,115.219,175.844h-16.594
			c3.278-29.221-11.458-58.016-38.062-71.875c-7.325-3.818-15.064-6.238-22.907-7.375c-20.978-3.031-42.606,3.387-58.686,17.969
			c-3.677-4.533-7.736-8.799-12.563-12.406c-12.624-9.439-27.608-14.211-42.624-14.313c-15.018-0.16-30.062,4.482-42.813,13.75
			c-5.134,3.73-9.504,8.174-13.376,12.938c-16.077-14.566-37.685-20.969-58.656-17.938c-7.84,1.137-15.581,3.557-22.906,7.375
			c-26.795,13.957-41.565,43.068-38,72.5H32.242c-0.288-76.646,44.992-145.951,115.093-176.531L147.325,1084.392z M212.045,1089.517
			c3.723,1.742,7.818,2.781,12.155,2.781c4.242,0,8.216-1.008,11.845-2.688v28.5l-8.406-5.063c-2.613-1.553-5.885-1.488-8.438,0.16
			l-7.155,4.563V1089.517z M224.419,1188.265c11.67,0,23.344,3.801,33.187,11.156c18.915,14.145,26.658,38.447,19.938,60.875
			c-35.656,0-71.312,0-106.968,0.191c-6.899-22.771,1.2-47.43,20.562-61.5C201.944,1191.654,213.601,1188.236,224.419,1188.265
			L224.419,1188.265z M431.082,1276.297c-2.459,59.053-29.384,114.332-75.187,151.969c-96.573,0.576-178.428-1.072-263.763,0
			c-45.59-37.486-72.517-92.465-75.155-151.25c138.035-0.768,276.07-0.721,414.106-0.721V1276.297z"/>
    <g>
			<path style="fill:#FFB900;" d="M224.214,1051.545c7.078,0,12.406,5.43,12.406,12.5c0,7.039-5.186,12.252-12.406,12.252
				s-12.688-5.332-12.688-12.252C211.526,1057.119,217.11,1051.545,224.214,1051.545z"/>
      <path style="fill:#FFB900;" d="M121.183,1196.261c14.101,0.287,27.79,6.066,38.219,16.438c-7.139,14.631-9.051,31.49-5.25,47.846
				l-89.219,0.32c-3.678-23.57,7.782-47.064,29.25-58.25c8.571-4.463,17.845-6.531,27-6.344V1196.261z"/>
      <path style="fill:#FFB900;" d="M326.933,1196.261c9.15-0.191,18.43,1.881,27,6.344c21.298,11.096,32.747,34.307,29.344,57.688
				h-89.219c3.714-16.246,1.784-33.023-5.312-47.596c10.427-10.367,24.099-16.148,38.187-16.438L326.933,1196.261z"/>
      <path style="fill:#FFB900;" d="M115.183,1444.261h217.782l-2.656,8H117.84L115.183,1444.261z"/>
		</g>
    <g>
			<path style="fill:#464C63;" d="M15.266,1292.349c-10.608,0.576-9.83,16.463,0.784,15.998h64c10.834,0.176,10.834-16.168,0-15.998
				C58.481,1292.349,36.776,1292.349,15.266,1292.349z"/>
      <path style="fill:#464C63;" d="M103.266,1292.349c-10.608,0.576-9.83,16.463,0.784,15.998h16
				c10.834,0.176,10.834-16.168,0-15.998C114.496,1292.349,108.755,1292.349,103.266,1292.349z"/>
      <path style="fill:#464C63;" d="M207.423,1156.361c-4.405,0.352-7.691,4.205-7.34,8.611c0.085,1.063,0.381,2.096,0.871,3.043
				l7.907,15.811c1.924,3.977,6.709,5.643,10.687,3.717c3.978-1.924,5.642-6.707,3.718-10.686c-0.03-0.063-0.061-0.125-0.093-0.186
				l-7.906-15.811C213.832,1157.884,210.716,1156.097,207.423,1156.361z"/>
      <path style="fill:#464C63;" d="M231.954,1156.332c-4.418,0.053-7.958,3.676-7.906,8.094c0,0.01,0,0.02,0,0.029v15.781
				c-0.063,4.418,3.468,8.051,7.886,8.113s8.051-3.467,8.114-7.885c0.001-0.076,0.001-0.152,0-0.229v-15.781
				c0.068-4.418-3.458-8.055-7.876-8.123C232.099,1156.332,232.026,1156.332,231.954,1156.332z"/>
		</g>
	</g>
  <g>
		<path style="fill:#464C63;" d="M216.063,1212.345c0,4.418-3.581,8-7.999,8c0,0,0,0-0.001,0c-4.418,0-8-3.582-8-8l0,0
			c0-4.418,3.581-8,7.999-8c0,0,0,0,0.001,0C212.481,1204.345,216.063,1207.927,216.063,1212.345L216.063,1212.345z"/>
    <path style="fill:#464C63;" d="M248.063,1212.345c0,4.418-3.581,8-7.999,8c0,0,0,0-0.001,0c-4.418,0-8-3.582-8-8l0,0
			c0-4.418,3.581-8,7.999-8c0,0,0,0,0.001,0C244.481,1204.345,248.063,1207.927,248.063,1212.345L248.063,1212.345z"/>
    <g>
			
				<path shape-rendering="auto" image-rendering="auto" color-rendering="auto" color-interpolation="sRGB"
              style="fill:#464C63;" d="
				M215.968,1225.191c-4.419,0-8,3.584-7.999,8.002c0,2.168,0.88,4.242,2.437,5.748l8,8c3.124,3.123,8.188,3.123,11.312,0l8-8
				c3.185-3.063,3.284-8.127,0.221-11.313c-3.063-3.184-8.127-3.283-11.312-0.221c-0.075,0.072-0.148,0.146-0.221,0.221
				l-2.344,2.342l-2.344-2.342C220.211,1226.07,218.136,1225.191,215.968,1225.191L215.968,1225.191z"/>
      <path style="fill:#464C63;" d="M112.01,1188.244l-7.896-15.797"/>
      <path style="fill:#464C63;" d="M128.063,1188.232v-15.777"/>
      <g shape-rendering="auto" image-rendering="auto" color-rendering="auto" color-interpolation="sRGB">
				<path style="fill:#464C63;" d="M103.423,1164.359c-4.405,0.35-7.691,4.205-7.341,8.609c0.085,1.064,0.381,2.1,0.872,3.047
					l7.907,15.811c1.939,3.971,6.73,5.617,10.7,3.68c3.971-1.939,5.618-6.73,3.679-10.699c-0.022-0.047-0.045-0.092-0.068-0.137
					l-7.907-15.811C109.831,1165.884,106.715,1164.095,103.423,1164.359z"/>
        <path style="fill:#464C63;" d="M127.954,1164.33c-4.418,0.053-7.958,3.676-7.906,8.094c0,0.01,0,0.021,0,0.031v15.779
					c-0.063,4.418,3.468,8.051,7.886,8.113c4.418,0.063,8.051-3.467,8.114-7.885c0.001-0.076,0.001-0.152,0-0.229v-15.779
					c0.069-4.418-3.456-8.055-7.874-8.125C128.1,1164.33,128.027,1164.33,127.954,1164.33z"/>
			</g>
		</g>
    <path style="fill:#464C63;" d="M112.063,1220.343c-0.001,4.418-3.582,7.998-8,7.998s-7.999-3.58-8-7.998c0-4.418,3.581-8,7.999-8
			c0,0,0,0,0.001,0C108.481,1212.343,112.063,1215.925,112.063,1220.343L112.063,1220.343z"/>
    <path style="fill:#464C63;" d="M144.063,1220.343c-0.001,4.418-3.582,7.998-8,7.998s-7.999-3.58-8-7.998c0-4.418,3.581-8,7.999-8
			c0,0,0,0,0.001,0C140.481,1212.343,144.063,1215.925,144.063,1220.343L144.063,1220.343z"/>
    <g shape-rendering="auto" image-rendering="auto" color-rendering="auto" color-interpolation="sRGB">
			<path style="fill:#464C63;" d="M111.968,1233.966c-4.419,0-8,3.584-7.999,8.002c0,2.168,0.88,4.242,2.437,5.748l8,8
				c3.124,3.123,8.188,3.123,11.312,0l8-8c3.185-3.063,3.284-8.127,0.221-11.313c-3.063-3.186-8.127-3.283-11.312-0.221
				c-0.075,0.072-0.149,0.146-0.221,0.221l-2.344,2.342l-2.344-2.342C116.211,1234.845,114.136,1233.966,111.968,1233.966
				L111.968,1233.966z"/>
      <path style="fill:#464C63;" d="M343.642,1164.359c-2.911,0.152-5.509,1.877-6.781,4.5l-7.907,15.811
				c-1.998,3.941-0.423,8.756,3.519,10.754c3.942,1.998,8.757,0.424,10.755-3.518c0.013-0.027,0.027-0.053,0.04-0.08l7.906-15.811
				c2.025-3.928,0.484-8.752-3.443-10.777C346.469,1164.588,345.058,1164.285,343.642,1164.359L343.642,1164.359z"/>
      <path style="fill:#464C63;" d="M319.954,1164.33c-4.418,0.053-7.958,3.676-7.906,8.094c0,0.01,0,0.021,0,0.031v15.779
				c-0.063,4.418,3.468,8.051,7.886,8.113s8.051-3.467,8.114-7.885c0.001-0.076,0.001-0.152,0-0.229v-15.779
				c0.069-4.418-3.456-8.055-7.874-8.125C320.1,1164.33,320.027,1164.33,319.954,1164.33z"/>
		</g>
    <path style="fill:#464C63;" d="M336.063,1220.345c0.001,4.418,3.582,7.998,8,7.998s7.999-3.58,8-7.998c0-4.418-3.581-8-7.999-8
			c0,0,0,0-0.001,0C339.644,1212.345,336.063,1215.927,336.063,1220.345L336.063,1220.345z"/>
    <path style="fill:#464C63;" d="M304.063,1220.345c0.001,4.418,3.582,7.998,8,7.998s7.999-3.58,8-7.998c0-4.418-3.581-8-7.999-8
			c0,0,0,0-0.001,0C307.644,1212.345,304.063,1215.927,304.063,1220.345L304.063,1220.345z"/>
    <g shape-rendering="auto" image-rendering="auto" color-rendering="auto" color-interpolation="sRGB">
			<path style="fill:#464C63;" d="M319.968,1233.966c-4.419,0-8,3.584-7.999,8.002c0,2.168,0.88,4.242,2.437,5.748l8,8
				c3.124,3.123,8.188,3.123,11.312,0l8-8c3.185-3.063,3.284-8.127,0.221-11.313c-3.063-3.184-8.127-3.283-11.312-0.221
				c-0.075,0.072-0.148,0.146-0.221,0.221l-2.344,2.342l-2.344-2.342C324.211,1234.845,322.136,1233.966,319.968,1233.966z"/>
      <path style="fill:#464C63;" d="M143.267,1292.349c-10.608,0.576-9.83,16.463,0.784,15.998h288
				c10.834,0.176,10.834-16.168,0-15.998C335.806,1292.349,239.457,1292.349,143.267,1292.349L143.267,1292.349z"/>
		</g>
	</g>
</g>
</svg>