<?xml version="1.0" encoding="iso-8859-1"?>
<!-- Uploaded to: SVG Repo, www.svgrepo.com, Generator: SVG Repo Mixer Tools -->
<svg height="800px" width="800px" version="1.1" id="Layer_1" xmlns="http://www.w3.org/2000/svg" xmlns:xlink="http://www.w3.org/1999/xlink" 
	 viewBox="0 0 512 512" xml:space="preserve">
<path style="fill:#FFD77A;" d="M14.209,383.646c-3.919,17.314,0.461,34.194,12.974,43.402c12.513,9.21,29.93,8.374,45.297-0.515
	c3.919-17.314-0.461-34.194-12.974-43.402C46.994,373.923,29.575,374.757,14.209,383.646z"/>
<path style="fill:#E6C26E;" d="M248.076,240.723c77.942,66.646,76.084,236.889-75.791,236.889S18.552,307.37,96.494,240.723H248.076
	z"/>
<path style="fill:#FFD77A;" d="M298.141,158.052c-6.174-12.442-10.771-25.563-14.29-39c-10.61-40.526-42.718-72.35-83.404-82.562
	l0,0c15.156-14.981,17.706-28.225,17.706-28.225s-23.977-2.227-37.261,7.506c-5.11,3.744-12.108,3.744-17.216,0
	c-13.284-9.732-37.261-7.506-37.261-7.506s2.549,13.244,17.705,28.225l0,0c-40.686,10.212-72.794,42.036-83.404,82.562
	c-3.518,13.436-8.116,26.559-14.29,39c-14.837,29.904-9.925,118.581,125.856,118.581S312.978,187.956,298.141,158.052z"/>
<g style="opacity:0.1;">
	<path d="M144.121,36.491c-40.686,10.212-72.794,42.036-83.404,82.562c-3.518,13.436-8.116,26.559-14.29,39
		c-14.837,29.904-9.925,118.582,125.856,118.582c5.57,0,10.899-0.164,16.035-0.452C68.226,269.443,64.27,186.729,78.499,158.052
		c6.174-12.441,10.771-25.563,14.29-39C103.397,78.526,103.436,46.703,144.121,36.491L144.121,36.491z"/>
</g>
<path style="fill:#FFA0C1;" d="M294.736,492.338c-61.286-23.255-108.12-94.083-66.111-204.789s140.297-173.53,200.938-150.52
	s92.508,135.224,50.499,245.93S356.023,515.594,294.736,492.338z"/>
<path style="opacity:0.1;enable-background:new    ;" d="M290.038,314.534c15.011-91.111,69.337-160.455,122.882-181.573
	c-60.696-7.621-145.943,53.524-184.294,154.588c-42.009,110.707,4.824,181.534,66.111,204.789
	c24.005,9.109,51.193,11.283,77.912,3.908C317.587,476.394,273.078,417.469,290.038,314.534z"/>
<path style="fill:#ED9472;" d="M213.895,180.569l-41.61-13.914l-41.61,13.919c0,0.048-0.004,0.096-0.004,0.145
	c0,18.772,18.632,33.989,41.615,33.989s41.615-15.217,41.615-33.989C213.899,180.667,213.895,180.618,213.895,180.569z"/>
<path style="fill:#FF9E78;" d="M172.285,186.58c15.637,0,30.048-2.241,41.567-6.01l0.044-0.002
	c-0.099-18.702-18.689-33.84-41.61-33.84c-22.924,0-41.514,15.139-41.61,33.844l0.043-0.003
	C142.237,184.339,156.648,186.58,172.285,186.58z"/>
<path style="fill:#FFDA87;" d="M178.452,266.728c-1.338-0.501-2.677-0.982-4.016-1.446c-54.247-18.77-84.551,62.205-31.308,83.661
	c1.314,0.529,2.64,1.045,3.979,1.546c42.827,16.027,86.207,12.751,112.788-5.538C251.85,313.705,221.279,282.755,178.452,266.728z"
	/>
<circle cx="119.591" cy="137.679" r="12.145"/>
<circle cx="224.921" cy="137.679" r="12.145"/>
<path d="M172.257,138.712c-27.136,0-49.32,18.609-49.618,41.541c-0.001,0.029-0.006,0.058-0.006,0.088
	c-0.004,0.121-0.007,0.277-0.007,0.378c0,23.162,22.265,42.007,49.632,42.007s49.632-18.845,49.632-42.007
	c0-0.13-0.003-0.259-0.009-0.39c-0.001-0.025-0.005-0.049-0.006-0.074C221.579,157.324,199.392,138.712,172.257,138.712z
	 M172.257,206.691c-13.436,0-25.056-6.129-30.425-14.96c0.335,0.551,4.321,0.776,4.853,0.863c8.316,1.346,17.003,2.004,25.526,2.004
	c0.015,0,0.03,0.001,0.046,0.001c0.016,0,0.031-0.001,0.046-0.001c9.719-0.003,19.46-0.805,29.015-2.614
	c0.453-0.086,0.914-0.164,1.365-0.253C197.312,200.562,185.693,206.691,172.257,206.691z M203.424,175.149
	c-10.186,2.418-20.709,3.416-31.167,3.416c-10.483,0-20.944-0.991-31.154-3.412c-0.522-0.124-1.031-0.258-1.544-0.387
	c3.499-11.453,16.851-20.016,32.698-20.016s29.199,8.563,32.698,20.017C204.445,174.893,203.94,175.026,203.424,175.149z"/>
<path d="M118.811,477.414l5.501,18.551H111.48c-4.428,0-8.018,3.59-8.018,8.018c0,4.428,3.59,8.018,8.018,8.018
	c0,0,23.544,0,23.599,0h38.492c4.428,0,8.018-3.59,8.018-8.018c0-4.428-3.59-8.018-8.018-8.018h-32.532l-4.059-13.69
	c11.054,2.221,22.841,3.358,35.279,3.358c15.139,0,29.246-1.628,42.231-4.86l4.505,15.192h-12.832c-4.428,0-8.018,3.59-8.018,8.018
	c0,4.428,3.59,8.018,8.018,8.018c0,0,23.544,0,23.599,0h38.492c4.428,0,8.018-3.59,8.018-8.018c0-4.428-3.59-8.018-8.018-8.018
	H235.72l-5.918-19.955c5.107-1.921,10.002-4.132,14.685-6.624c13.263,13.237,29.315,23.596,47.378,30.451
	c15.511,5.886,31.743,8.83,47.911,8.829c15.863,0,31.665-2.836,46.642-8.508c4.141-1.568,6.227-6.196,4.658-10.337
	c-1.568-4.141-6.196-6.227-10.337-4.658c-26.578,10.067-56.121,9.953-83.186-0.317c-17.674-6.707-33.143-17.212-45.484-30.745
	c-0.045-0.052-0.084-0.11-0.132-0.161c-4.06-4.462-7.736-9.206-11.027-14.208c-0.077-0.117-0.152-0.235-0.229-0.352
	c-11.946-18.311-18.704-40.07-19.915-64.195c-0.015-0.305-0.032-0.608-0.045-0.914c-0.09-2.115-0.149-4.232-0.156-6.349
	c0-0.109,0.001-0.219,0.001-0.328c13.403-1.815,25.606-5.645,36.147-11.351c0.252-0.136,0.509-0.267,0.759-0.406
	c2.374-1.316,4.705-2.731,6.938-4.276c2.773-1.908,4.058-5.344,3.22-8.603c-4.731-18.382-16.08-35.935-32.17-50.868
	c0.004-0.011,0.007-0.022,0.012-0.033c0.21-0.565,0.417-1.118,0.621-1.659c0.024-0.062,0.049-0.124,0.073-0.186
	c2.426-6.379,5.118-12.775,8.013-19.02c15.891-34.288,38.193-64.746,64.494-88.082c0.143-0.127,0.269-0.267,0.403-0.403
	c5.703-5.018,11.596-9.706,17.658-14.029c35.582-25.369,72.949-34.397,99.957-24.147c27.008,10.249,48.979,41.792,58.773,84.38
	c10.817,47.035,6.227,100.736-12.927,151.209c-15.407,40.601-36.961,70.943-64.066,90.184c-3.61,2.562-4.46,7.568-1.896,11.179
	c2.564,3.611,7.568,4.459,11.179,1.896c29.745-21.114,53.222-53.941,69.777-97.57c20.265-53.405,25.081-110.403,13.562-160.492
	c-11.162-48.533-36.207-83.443-68.713-95.779c-32.505-12.334-74.405-2.828-114.954,26.083c-3.042,2.169-6.039,4.432-8.998,6.768
	c-0.89-2.829-1.935-5.482-3.132-7.896c-5.564-11.214-10.05-23.47-13.714-37.467c-10.304-39.358-39.246-70.798-76.964-84.551
	c9.078-11.977,11.137-21.417,11.382-22.692c0.428-2.221-0.104-4.521-1.461-6.33c-1.359-1.809-3.418-2.96-5.67-3.169
	c-0.273-0.026-6.803-0.616-15.078,0.098c-11.644,1.003-20.951,4.006-27.661,8.923c-2.278,1.67-5.461,1.671-7.74,0
	c-15.294-11.205-39.978-9.277-42.741-9.021c-2.252,0.21-4.312,1.36-5.67,3.169c-1.358,1.809-1.889,4.108-1.461,6.329
	c0.245,1.275,2.305,10.717,11.385,22.695c-17.792,6.501-33.893,17.056-47.098,30.962c-3.049,3.211-2.917,8.286,0.294,11.336
	c3.21,3.05,8.285,2.917,11.335-0.293c14.074-14.822,31.921-25.269,51.613-30.211c2.808-0.706,5.019-2.869,5.782-5.663
	c0.763-2.793-0.038-5.781-2.097-7.817c-5.417-5.355-9.009-10.434-11.354-14.533c7.005,0.522,15.229,2.095,20.534,5.983
	c7.982,5.849,18.71,5.85,26.694,0c5.271-3.862,13.502-5.434,20.521-5.964c-2.346,4.1-5.934,9.17-11.34,14.514
	c-2.059,2.035-2.861,5.023-2.097,7.817c0.763,2.793,2.973,4.957,5.781,5.663c37.954,9.527,67.689,38.961,77.6,76.816
	c3.945,15.069,8.807,28.327,14.863,40.533c1.679,3.385,3.011,7.677,3.858,12.365c-25.696,23.547-47.511,53.435-63.625,87.196
	c-0.176,0.051-0.346,0.108-0.524,0.158c-6.052,1.75-12.218,3.117-18.429,4.167c-0.056,0.01-0.109,0.02-0.164,0.03
	c-4.179,0.693-8.377,1.255-12.59,1.701c-1.414-0.718-2.844-1.42-4.288-2.105c-0.094-0.045-0.188-0.09-0.283-0.135
	c-11.383-5.377-23.534-10.53-36.338-10.53c-11.208,0-21.597,3.785-30.067,10.357c-35.209-6.749-60.077-22.667-72.045-46.178
	c-11.574-22.735-8.049-46.56-2.854-57.028c6.056-12.206,10.918-25.464,14.863-40.533c1.973-7.538,4.814-14.919,8.443-21.939
	c2.033-3.934,0.494-8.77-3.44-10.803c-3.933-2.033-8.77-0.493-10.803,3.44c-4.172,8.07-7.439,16.562-9.712,25.243
	c-3.665,13.997-8.151,26.253-13.714,37.467c-7.949,16.019-10.423,45.204,2.928,71.43c5.171,10.156,13.672,21.771,27.618,31.974
	c-11.531,15.673-20.421,34.166-25.893,54.001c-1.178,4.269,1.329,8.684,5.596,9.862c4.265,1.178,8.684-1.328,9.862-5.596
	c5.071-18.382,13.343-35.446,24.076-49.751c4.681,2.467,9.666,4.684,14.928,6.659c0.064,0.024,0.125,0.049,0.189,0.074
	c5.547,2.078,11.228,3.804,16.975,5.237c0.208,0.052,0.412,0.11,0.621,0.161c-3.686,5.874-6.383,12.613-7.813,19.988
	c-4.253,21.929,5.462,43.866,25.15,54.684c12.98,7.132,28.497,11.025,43.017,13.439c8.881,1.476,17.911,2.228,26.916,2.147
	c0.382-0.003,0.766,0.001,1.147-0.005c-0.872,0.295,0.748,14.45,0.905,15.965c0.01,0.097,0.019,0.195,0.029,0.291
	c1.686,16.106,5.694,31.209,11.928,45.039c0.067,0.15,0.134,0.298,0.201,0.447c4.264,9.37,9.602,18.289,15.929,26.413
	c0.009,0.012,0.017,0.024,0.027,0.035c-17.238,8.376-37.807,12.614-61.296,12.614c-16.073,0-30.678-1.943-43.764-5.798
	c-0.544-0.235-1.116-0.405-1.703-0.515c-17.871-5.548-32.844-14.735-44.754-27.514c-3.111-3.337-5.975-6.9-8.592-10.659
	c-0.048-0.076-0.089-0.155-0.14-0.229c-9.546-13.81-15.694-30.118-18.272-48.472c-0.017-0.122-0.056-0.235-0.078-0.356
	c-1.282-9.396-1.592-19.237-0.876-29.392c0.312-4.417-3.017-8.251-7.434-8.562c-4.41-0.307-8.25,3.017-8.562,7.434
	c-0.555,7.863-0.547,15.567-0.012,23.069c-9.309,0.128-18.941,2.919-27.903,8.104c-1.933,1.118-3.312,2.992-3.806,5.17
	c-4.767,21.056,1.38,40.84,16.041,51.63c7.197,5.297,15.998,8.097,25.454,8.097c5.286,0,10.63-0.859,15.953-2.537
	c2.051,2.638,4.215,5.187,6.494,7.633C83.251,460.593,99.63,470.903,118.811,477.414z M223.026,279.764
	c-0.016,0.041-0.032,0.082-0.048,0.124c-0.189,0.474-0.377,0.947-0.563,1.421c-0.506-0.372-1.025-0.732-1.537-1.1
	C221.596,280.064,222.314,279.916,223.026,279.764z M218.114,351.735c-18.939,2.507-38.357,0.41-56.644-4.921
	c-9.798-2.856-20.122-6.09-27.773-13.176c-8.77-8.121-11.895-20.481-9.65-32.058c1.632-8.42,5.899-16.455,12.227-22.283
	c13.587-12.511,30.666-8.936,46.017-2.378c28.7,12.262,57.357,34.098,68.116,64.491c-0.103,0.058-0.211,0.112-0.314,0.17
	C240.235,347.102,229.284,350.258,218.114,351.735z M47.857,425.57h-0.002c-6.096,0-11.461-1.675-15.947-4.976
	c-8.695-6.4-12.604-18.325-10.569-31.678c6.24-3.038,12.702-4.516,18.746-4.259c2.658,14.564,7.483,28.127,14.333,40.272
	C52.191,425.353,49.989,425.57,47.857,425.57z"/>
</svg>