<?xml version="1.0" encoding="utf-8"?>

<!DOCTYPE svg PUBLIC "-//W3C//DTD SVG 1.1//EN" "http://www.w3.org/Graphics/SVG/1.1/DTD/svg11.dtd">
<!-- Uploaded to: SVG Repo, www.svgrepo.com, Generator: SVG Repo Mixer Tools -->
<svg height="800px" width="800px" version="1.1" id="_x32_" xmlns="http://www.w3.org/2000/svg" xmlns:xlink="http://www.w3.org/1999/xlink" 
	 viewBox="0 0 512 512"  xml:space="preserve">
<style type="text/css">
	.st0{fill:#000000;}
</style>
<g>
	<path class="st0" d="M436.094,282.012l-1.166-26.645l-36.376,35.064l-25.499-24.586c-3.086-14.887-6.747-28.837-10.301-41.298
		c-3.725-13.088-7.31-24.568-9.939-33.69c3.82-5.017,7.266-10.332,10.269-15.939c7.076-2.337,39.867-13.05,54.476-15.97
		c-9.066-24.175-36.167-37.225-40.475-39.17c0-0.291,0.02-0.577,0.02-0.874c0.006-16.382-3.332-32.055-9.351-46.29
		c-9.033-21.349-24.092-39.48-43.065-52.302C305.724,7.494,282.778-0.006,258.199,0c-16.389,0-32.056,3.326-46.291,9.35
		c-21.349,9.034-39.486,24.092-52.302,43.066c-12.822,18.961-20.323,41.9-20.316,66.486c-0.006,21.546,5.79,41.806,15.831,59.233
		L131.39,274.08l-16.953,16.345l-37.244-35.92l-1.235,26.55c-0.247,5.309-0.393,10.681-0.393,16.142
		c0,37.275,5.543,69.407,15.432,96.679c7.412,20.45,17.264,38.15,28.964,53.138c17.548,22.496,39.22,38.834,62.654,49.439
		C206.048,507.065,231.211,512,256,512c22.039,0,44.358-3.896,65.517-12.22c15.863-6.24,31.054-14.976,44.884-26.379
		c20.754-17.098,38.391-40.221,50.694-69.527c12.315-29.313,19.34-64.744,19.34-106.676
		C436.435,292.066,436.309,287.01,436.094,282.012z M178.142,169.736c-9.363-14.716-14.786-32.087-14.798-50.833
		c0.007-13.126,2.66-25.574,7.456-36.914c7.19-17.003,19.233-31.51,34.374-41.742c15.154-10.224,33.335-16.186,53.025-16.193
		c13.126,0.007,25.568,2.655,36.914,7.451c17.003,7.19,31.51,19.233,41.742,34.38c10.231,15.154,16.186,33.336,16.186,53.018
		c-0.006,23.49-8.508,44.866-22.635,61.463l-4.105,4.814l1.641,6.113c2.902,10.732,7.228,24.219,11.675,39.841
		c1.78,6.246,3.573,12.848,5.303,19.696l-41.076,39.594l-47.355-45.664l-47.354,45.664l-46.024-44.377l17.795-71.966
		L178.142,169.736z M398.381,385.679c-6.601,18.213-15.236,33.62-25.315,46.537c-15.128,19.372-33.525,33.215-53.608,42.318
		c-20.076,9.098-41.855,13.412-63.458,13.412c-19.202,0-38.556-3.408-56.712-10.548c-13.614-5.365-26.576-12.822-38.391-22.559
		c-17.706-14.621-32.904-34.362-43.813-60.285c-9.705-23.091-15.958-51.149-17.219-84.75l14.571,14.051l31.935-30.802l4.808,1.191
		l1.894-7.659l8.704-8.4l47.354,45.663l47.354-45.663l47.355,45.663l47.164-45.479c0.292,1.546,0.589,3.091,0.862,4.65l3.674-0.646
		l43.009,41.476l8.35-8.052l5.201-5.011C410.924,339.775,406.015,364.621,398.381,385.679z"/>
	<path class="st0" d="M265.484,135.906c12.074,0,21.862-9.788,21.862-21.862s-9.788-21.856-21.862-21.856
		c-12.069,0-21.862,9.781-21.862,21.856S253.415,135.906,265.484,135.906z"/>
</g>
</svg>